<svg width="168" height="56" viewBox="0 0 168 56" fill="none" xmlns="http://www.w3.org/2000/svg">
<path d="M1.30469 51V39.625H9.25781V51H7.8125V40.8281H2.74219V51H1.30469ZM11.2109 47.0781V46.75C11.2109 45.4844 11.5339 44.4766 12.1797 43.7266C12.8307 42.9766 13.6979 42.6016 14.7812 42.6016C15.8698 42.6016 16.737 42.9766 17.3828 43.7266C18.0339 44.4766 18.3594 45.4844 18.3594 46.75V47.0781C18.3594 48.3438 18.0339 49.3516 17.3828 50.1016C16.737 50.8516 15.8698 51.2266 14.7812 51.2266C13.6979 51.2266 12.8307 50.8516 12.1797 50.1016C11.5339 49.3516 11.2109 48.3438 11.2109 47.0781ZM12.6406 46.6562V47.1797C12.6406 48.0182 12.8203 48.7109 13.1797 49.2578C13.5391 49.8047 14.0729 50.0781 14.7812 50.0781C15.4948 50.0781 16.0312 49.8047 16.3906 49.2578C16.75 48.7109 16.9297 48.0182 16.9297 47.1797V46.6562C16.9297 45.8021 16.7526 45.1068 16.3984 44.5703C16.0443 44.0286 15.5052 43.7578 14.7812 43.7578C14.0625 43.7578 13.526 44.0312 13.1719 44.5781C12.8177 45.1198 12.6406 45.8125 12.6406 46.6562ZM20.1484 51V42.8281H21.5312V47.7969C21.5312 47.9531 21.5286 48.1302 21.5234 48.3281C21.5234 48.5208 21.5208 48.6953 21.5156 48.8516H21.5859C21.6536 48.7214 21.7266 48.5807 21.8047 48.4297C21.888 48.2734 21.974 48.1146 22.0625 47.9531L24.9688 42.8281H26.375V51H24.9922V46.0391C24.9922 45.8828 24.9948 45.7031 25 45.5C25.0052 45.2969 25.013 45.1172 25.0234 44.9609H24.9375C24.8698 45.0911 24.7969 45.237 24.7188 45.3984C24.6406 45.5599 24.5547 45.7214 24.4609 45.8828L21.5547 51H20.1484ZM28.1641 47.0781V46.75C28.1641 45.4844 28.474 44.4766 29.0938 43.7266C29.7188 42.9766 30.5755 42.6016 31.6641 42.6016C32.6745 42.6016 33.4401 42.888 33.9609 43.4609C34.4818 44.0286 34.7422 44.6823 34.7422 45.4219V45.4922H33.3906V45.4297C33.3906 44.9818 33.2578 44.5911 32.9922 44.2578C32.7266 43.9245 32.2839 43.7578 31.6641 43.7578C30.9609 43.7578 30.4401 44.0286 30.1016 44.5703C29.763 45.112 29.5938 45.8073 29.5938 46.6562V47.1719C29.5938 48.0156 29.7604 48.7109 30.0938 49.2578C30.4271 49.8047 30.9401 50.0781 31.6328 50.0781C32.2578 50.0781 32.7057 49.9115 32.9766 49.5781C33.2526 49.2396 33.3906 48.8464 33.3906 48.3984V48.3359H34.7422V48.4062C34.7422 49.1458 34.4818 49.8021 33.9609 50.375C33.4401 50.9427 32.6667 51.2266 31.6406 51.2266C30.5677 51.2266 29.7188 50.8516 29.0938 50.1016C28.474 49.3516 28.1641 48.3438 28.1641 47.0781ZM41.1562 51L38.2656 47.2891L39.1328 46.3281L42.8125 51H41.1562ZM37.0078 46.2656H38.3359L40.9609 42.8281H42.5312L39.0078 47.3828H37.0078V46.2656ZM37.7031 42.8281V51H36.3047V42.8281H37.7031ZM47.6641 51V42.8281H49.0469V47.7969C49.0469 47.9531 49.0443 48.1302 49.0391 48.3281C49.0391 48.5208 49.0365 48.6953 49.0312 48.8516H49.1016C49.1693 48.7214 49.2422 48.5807 49.3203 48.4297C49.4036 48.2734 49.4896 48.1146 49.5781 47.9531L52.4844 42.8281H53.8906V51H52.5078V46.0391C52.5078 45.8828 52.5104 45.7031 52.5156 45.5C52.5208 45.2969 52.5286 45.1172 52.5391 44.9609H52.4531C52.3854 45.0911 52.3125 45.237 52.2344 45.3984C52.1562 45.5599 52.0703 45.7214 51.9766 45.8828L49.0703 51H47.6641ZM62.5938 51.2266C61.5365 51.2266 60.7318 50.9609 60.1797 50.4297C59.6328 49.8932 59.3594 49.2396 59.3594 48.4688V48.4062H60.7188V48.4609C60.7188 48.9089 60.862 49.2891 61.1484 49.6016C61.4349 49.9141 61.9193 50.0703 62.6016 50.0703C63.1849 50.0703 63.6328 49.9401 63.9453 49.6797C64.2578 49.4141 64.4141 49.0573 64.4141 48.6094C64.4141 48.2292 64.2891 47.9323 64.0391 47.7188C63.7943 47.5 63.3958 47.3906 62.8438 47.3906H61.6016V46.2812H62.7266C63.237 46.2812 63.6016 46.1745 63.8203 45.9609C64.0443 45.7474 64.1562 45.4453 64.1562 45.0547C64.1562 44.6432 64.0208 44.3255 63.75 44.1016C63.4844 43.8724 63.1068 43.7578 62.6172 43.7578C61.9974 43.7578 61.5443 43.9115 61.2578 44.2188C60.9714 44.526 60.8281 44.9089 60.8281 45.3672V45.4219H59.4766V45.3594C59.4766 44.5312 59.7552 43.8646 60.3125 43.3594C60.8698 42.8542 61.6562 42.6016 62.6719 42.6016C63.6198 42.6016 64.3438 42.8099 64.8438 43.2266C65.3438 43.6432 65.5938 44.224 65.5938 44.9688C65.5938 45.401 65.4583 45.7865 65.1875 46.125C64.9167 46.4583 64.5547 46.6719 64.1016 46.7656V46.7891C64.6693 46.8776 65.1016 47.0781 65.3984 47.3906C65.6953 47.7031 65.8438 48.1094 65.8438 48.6094C65.8438 49.4375 65.5417 50.0807 64.9375 50.5391C64.3333 50.9974 63.5521 51.2266 62.5938 51.2266ZM67.3281 48.6016C67.3281 47.763 67.6276 47.1172 68.2266 46.6641C68.8255 46.2057 69.6068 45.9766 70.5703 45.9766H72.2188V45.3828C72.2188 44.8932 72.1042 44.4948 71.875 44.1875C71.651 43.8802 71.263 43.7266 70.7109 43.7266C70.1589 43.7266 69.763 43.8542 69.5234 44.1094C69.2839 44.3646 69.1641 44.6615 69.1641 45V45.0625H67.7734V45C67.7734 44.3385 68.0417 43.7734 68.5781 43.3047C69.1146 42.8359 69.8385 42.6016 70.75 42.6016C71.6615 42.6016 72.3672 42.8281 72.8672 43.2812C73.3672 43.7344 73.6172 44.4349 73.6172 45.3828V49.1406C73.6172 49.474 73.6406 49.7891 73.6875 50.0859C73.7396 50.3828 73.8099 50.6458 73.8984 50.875V51H72.5469C72.4792 50.875 72.4167 50.7135 72.3594 50.5156C72.3021 50.3177 72.2656 50.1198 72.25 49.9219C72.0781 50.2448 71.7969 50.5312 71.4062 50.7812C71.0208 51.0312 70.526 51.1562 69.9219 51.1562C69.1927 51.1562 68.5781 50.9427 68.0781 50.5156C67.5781 50.0885 67.3281 49.4505 67.3281 48.6016ZM68.7266 48.5625C68.7266 49.0469 68.8464 49.4141 69.0859 49.6641C69.3307 49.9089 69.7031 50.0312 70.2031 50.0312C70.7083 50.0312 71.1693 49.8542 71.5859 49.5C72.0078 49.1406 72.2188 48.7266 72.2188 48.2578V46.9844H70.7188C70.0677 46.9844 69.5729 47.1198 69.2344 47.3906C68.8958 47.6562 68.7266 48.0469 68.7266 48.5625ZM80.6875 51L77.7969 47.2891L78.6641 46.3281L82.3438 51H80.6875ZM76.5391 46.2656H77.8672L80.4922 42.8281H82.0625L78.5391 47.3828H76.5391V46.2656ZM77.2344 42.8281V51H75.8359V42.8281H77.2344ZM82.9219 48.6016C82.9219 47.763 83.2214 47.1172 83.8203 46.6641C84.4193 46.2057 85.2005 45.9766 86.1641 45.9766H87.8125V45.3828C87.8125 44.8932 87.6979 44.4948 87.4688 44.1875C87.2448 43.8802 86.8568 43.7266 86.3047 43.7266C85.7526 43.7266 85.3568 43.8542 85.1172 44.1094C84.8776 44.3646 84.7578 44.6615 84.7578 45V45.0625H83.3672V45C83.3672 44.3385 83.6354 43.7734 84.1719 43.3047C84.7083 42.8359 85.4323 42.6016 86.3438 42.6016C87.2552 42.6016 87.9609 42.8281 88.4609 43.2812C88.9609 43.7344 89.2109 44.4349 89.2109 45.3828V49.1406C89.2109 49.474 89.2344 49.7891 89.2812 50.0859C89.3333 50.3828 89.4036 50.6458 89.4922 50.875V51H88.1406C88.0729 50.875 88.0104 50.7135 87.9531 50.5156C87.8958 50.3177 87.8594 50.1198 87.8438 49.9219C87.6719 50.2448 87.3906 50.5312 87 50.7812C86.6146 51.0312 86.1198 51.1562 85.5156 51.1562C84.7865 51.1562 84.1719 50.9427 83.6719 50.5156C83.1719 50.0885 82.9219 49.4505 82.9219 48.6016ZM84.3203 48.5625C84.3203 49.0469 84.4401 49.4141 84.6797 49.6641C84.9245 49.9089 85.2969 50.0312 85.7969 50.0312C86.3021 50.0312 86.763 49.8542 87.1797 49.5C87.6016 49.1406 87.8125 48.7266 87.8125 48.2578V46.9844H86.3125C85.6615 46.9844 85.1667 47.1198 84.8281 47.3906C84.4896 47.6562 84.3203 48.0469 84.3203 48.5625ZM94.0312 51.2266C92.974 51.2266 92.1693 50.9609 91.6172 50.4297C91.0703 49.8932 90.7969 49.2396 90.7969 48.4688V48.4062H92.1562V48.4609C92.1562 48.9089 92.2995 49.2891 92.5859 49.6016C92.8724 49.9141 93.3568 50.0703 94.0391 50.0703C94.6224 50.0703 95.0703 49.9401 95.3828 49.6797C95.6953 49.4141 95.8516 49.0573 95.8516 48.6094C95.8516 48.2292 95.7266 47.9323 95.4766 47.7188C95.2318 47.5 94.8333 47.3906 94.2812 47.3906H93.0391V46.2812H94.1641C94.6745 46.2812 95.0391 46.1745 95.2578 45.9609C95.4818 45.7474 95.5938 45.4453 95.5938 45.0547C95.5938 44.6432 95.4583 44.3255 95.1875 44.1016C94.9219 43.8724 94.5443 43.7578 94.0547 43.7578C93.4349 43.7578 92.9818 43.9115 92.6953 44.2188C92.4089 44.526 92.2656 44.9089 92.2656 45.3672V45.4219H90.9141V45.3594C90.9141 44.5312 91.1927 43.8646 91.75 43.3594C92.3073 42.8542 93.0938 42.6016 94.1094 42.6016C95.0573 42.6016 95.7812 42.8099 96.2812 43.2266C96.7812 43.6432 97.0312 44.224 97.0312 44.9688C97.0312 45.401 96.8958 45.7865 96.625 46.125C96.3542 46.4583 95.9922 46.6719 95.5391 46.7656V46.7891C96.1068 46.8776 96.5391 47.0781 96.8359 47.3906C97.1328 47.7031 97.2812 48.1094 97.2812 48.6094C97.2812 49.4375 96.9792 50.0807 96.375 50.5391C95.7708 50.9974 94.9896 51.2266 94.0312 51.2266ZM103.039 51V42.8281H106.227C107.112 42.8281 107.81 43.0078 108.32 43.3672C108.831 43.7266 109.086 44.2734 109.086 45.0078C109.086 45.4766 108.951 45.8646 108.68 46.1719C108.409 46.4792 108.049 46.6797 107.602 46.7734V46.7969C108.154 46.8802 108.586 47.0807 108.898 47.3984C109.211 47.7161 109.367 48.1276 109.367 48.6328C109.367 49.3828 109.102 49.9661 108.57 50.3828C108.039 50.7943 107.333 51 106.453 51H103.039ZM104.438 46.2891H106.227C106.737 46.2891 107.104 46.1823 107.328 45.9688C107.557 45.7552 107.672 45.4609 107.672 45.0859C107.672 44.7161 107.557 44.4349 107.328 44.2422C107.104 44.0443 106.737 43.9453 106.227 43.9453H104.438V46.2891ZM104.438 49.8828H106.453C106.974 49.8828 107.357 49.7682 107.602 49.5391C107.846 49.3099 107.969 49.0052 107.969 48.625C107.969 48.25 107.846 47.9531 107.602 47.7344C107.362 47.5104 106.979 47.3984 106.453 47.3984H104.438V49.8828ZM114.688 48.6016C114.688 47.763 114.987 47.1172 115.586 46.6641C116.185 46.2057 116.966 45.9766 117.93 45.9766H119.578V45.3828C119.578 44.8932 119.464 44.4948 119.234 44.1875C119.01 43.8802 118.622 43.7266 118.07 43.7266C117.518 43.7266 117.122 43.8542 116.883 44.1094C116.643 44.3646 116.523 44.6615 116.523 45V45.0625H115.133V45C115.133 44.3385 115.401 43.7734 115.938 43.3047C116.474 42.8359 117.198 42.6016 118.109 42.6016C119.021 42.6016 119.727 42.8281 120.227 43.2812C120.727 43.7344 120.977 44.4349 120.977 45.3828V49.1406C120.977 49.474 121 49.7891 121.047 50.0859C121.099 50.3828 121.169 50.6458 121.258 50.875V51H119.906C119.839 50.875 119.776 50.7135 119.719 50.5156C119.661 50.3177 119.625 50.1198 119.609 49.9219C119.438 50.2448 119.156 50.5312 118.766 50.7812C118.38 51.0312 117.885 51.1562 117.281 51.1562C116.552 51.1562 115.938 50.9427 115.438 50.5156C114.938 50.0885 114.688 49.4505 114.688 48.6016ZM116.086 48.5625C116.086 49.0469 116.206 49.4141 116.445 49.6641C116.69 49.9089 117.062 50.0312 117.562 50.0312C118.068 50.0312 118.529 49.8542 118.945 49.5C119.367 49.1406 119.578 48.7266 119.578 48.2578V46.9844H118.078C117.427 46.9844 116.932 47.1198 116.594 47.3906C116.255 47.6562 116.086 48.0469 116.086 48.5625ZM123.195 42.8281H129.219V51H127.828V43.9453H124.594V51H123.195V42.8281ZM130.656 43.9453V42.8281H136.836V43.9453H134.445V51H133.047V43.9453H130.656ZM137.773 47.0781V46.75C137.773 45.4896 138.086 44.4844 138.711 43.7344C139.341 42.9792 140.172 42.6016 141.203 42.6016C142.234 42.6016 143.029 42.9531 143.586 43.6562C144.143 44.3542 144.422 45.3385 144.422 46.6094V47.2266H138.594V46.1016H143.016V45.8984C143.016 45.2995 142.87 44.7943 142.578 44.3828C142.286 43.9661 141.839 43.7578 141.234 43.7578C140.557 43.7578 140.047 44.0208 139.703 44.5469C139.365 45.0677 139.195 45.7708 139.195 46.6562V47.1719C139.195 48.0417 139.37 48.7448 139.719 49.2812C140.073 49.8125 140.628 50.0781 141.383 50.0781C141.872 50.0781 142.284 49.9661 142.617 49.7422C142.956 49.513 143.232 49.2396 143.445 48.9219L144.398 49.5938C144.154 50.026 143.776 50.4062 143.266 50.7344C142.755 51.0625 142.138 51.2266 141.414 51.2266C140.242 51.2266 139.341 50.8516 138.711 50.1016C138.086 49.3516 137.773 48.3438 137.773 47.0781ZM151.016 51L148.125 47.2891L148.992 46.3281L152.672 51H151.016ZM146.867 46.2656H148.195L150.82 42.8281H152.391L148.867 47.3828H146.867V46.2656ZM147.562 42.8281V51H146.164V42.8281H147.562ZM153.25 48.6016C153.25 47.763 153.549 47.1172 154.148 46.6641C154.747 46.2057 155.529 45.9766 156.492 45.9766H158.141V45.3828C158.141 44.8932 158.026 44.4948 157.797 44.1875C157.573 43.8802 157.185 43.7266 156.633 43.7266C156.081 43.7266 155.685 43.8542 155.445 44.1094C155.206 44.3646 155.086 44.6615 155.086 45V45.0625H153.695V45C153.695 44.3385 153.964 43.7734 154.5 43.3047C155.036 42.8359 155.76 42.6016 156.672 42.6016C157.583 42.6016 158.289 42.8281 158.789 43.2812C159.289 43.7344 159.539 44.4349 159.539 45.3828V49.1406C159.539 49.474 159.562 49.7891 159.609 50.0859C159.661 50.3828 159.732 50.6458 159.82 50.875V51H158.469C158.401 50.875 158.339 50.7135 158.281 50.5156C158.224 50.3177 158.188 50.1198 158.172 49.9219C158 50.2448 157.719 50.5312 157.328 50.7812C156.943 51.0312 156.448 51.1562 155.844 51.1562C155.115 51.1562 154.5 50.9427 154 50.5156C153.5 50.0885 153.25 49.4505 153.25 48.6016ZM154.648 48.5625C154.648 49.0469 154.768 49.4141 155.008 49.6641C155.253 49.9089 155.625 50.0312 156.125 50.0312C156.63 50.0312 157.091 49.8542 157.508 49.5C157.93 49.1406 158.141 48.7266 158.141 48.2578V46.9844H156.641C155.99 46.9844 155.495 47.1198 155.156 47.3906C154.818 47.6562 154.648 48.0469 154.648 48.5625ZM160.773 51L163.641 46.4844L163.727 46.4766L165.867 42.8281H167.406L164.672 47.2344L164.578 47.2422L162.312 51H160.773ZM160.922 42.8281H162.477L164.641 46.4766L164.688 46.4844L167.547 51H165.992L163.711 47.2422L163.656 47.2344L160.922 42.8281Z" fill="#78808F"/>
<path d="M56.1094 7.70312H52.418V9.80078H51.5273C48.5664 9.80078 46.3711 10.3789 44.9414 11.5352C43.5117 12.6836 42.7969 14.2812 42.7969 16.3281C42.7969 18.3672 43.5078 19.9648 44.9297 21.1211C46.3516 22.2773 48.5547 22.8555 51.5391 22.8555H52.418V25.2344H56.1094V22.8555H56.9883C59.9648 22.8555 62.1641 22.2812 63.5859 21.1328C65.0156 19.9766 65.7305 18.375 65.7305 16.3281C65.7305 14.2891 65.0156 12.6914 63.5859 11.5352C62.1562 10.3789 59.9609 9.80078 57 9.80078H56.1094V7.70312ZM57.0469 12.5781C58.8984 12.5781 60.1797 12.9062 60.8906 13.5625C61.6094 14.2188 61.9688 15.1523 61.9688 16.3633C61.9688 17.5898 61.6094 18.5234 60.8906 19.1641C60.1797 19.8047 58.8984 20.125 57.0469 20.125H56.1094V12.5781H57.0469ZM51.4805 12.5781H52.418V20.125H51.4805C49.6367 20.125 48.3555 19.8008 47.6367 19.1523C46.918 18.4961 46.5586 17.5586 46.5586 16.3398C46.5586 15.1211 46.918 14.1914 47.6367 13.5508C48.3555 12.9023 49.6367 12.5781 51.4805 12.5781ZM65.5613 25H69.2761L74.0222 13.3398C74.155 13.0039 74.2644 12.6797 74.3503 12.3672C74.4441 12.0547 74.5339 11.7617 74.6198 11.4883H74.7136C74.7995 11.7617 74.8894 12.0547 74.9831 12.3672C75.0769 12.6797 75.1902 13.0039 75.323 13.3398L80.0339 25H84.2175L76.7527 7.86719H73.0027L65.5613 25ZM69.2175 21.2617H80.3503L79.3425 18.5312H70.2136L69.2175 21.2617ZM85.8347 25H89.6433V19.3867H93.862C96.0964 19.418 97.7956 18.9297 98.9597 17.9219C100.124 16.9141 100.706 15.4922 100.706 13.6562C100.706 11.7812 100.12 10.3594 98.948 9.39062C97.7839 8.42188 96.0964 7.9375 93.8855 7.9375H85.8347V25ZM89.6433 16.6445V10.75H93.3816C94.6706 10.75 95.5808 10.9961 96.112 11.4883C96.6433 11.9805 96.9089 12.7109 96.9089 13.6797C96.9089 14.6406 96.6433 15.375 96.112 15.8828C95.5808 16.3906 94.6706 16.6445 93.3816 16.6445H89.6433ZM103.132 25H106.366L106.354 14.1133C106.354 13.8711 106.346 13.6211 106.331 13.3633C106.315 13.0977 106.3 12.8438 106.284 12.6016H106.366C106.421 12.8438 106.487 13.0977 106.565 13.3633C106.643 13.6211 106.737 13.8672 106.846 14.1016L111.956 25H115.038L120.171 14.0898C120.272 13.8555 120.362 13.6055 120.44 13.3398C120.518 13.0742 120.581 12.8242 120.628 12.5898H120.71C120.694 12.8242 120.678 13.0742 120.663 13.3398C120.647 13.6055 120.639 13.8555 120.639 14.0898V25H124.389V7.9375H119.842L114.276 19.6562C114.167 19.8984 114.061 20.1484 113.96 20.4062C113.858 20.6562 113.78 20.875 113.725 21.0625H113.667C113.612 20.875 113.526 20.6562 113.409 20.4062C113.3 20.1562 113.19 19.9062 113.081 19.6562L107.585 7.9375H103.132V25ZM127.342 16.7852C127.342 19.6992 128.175 21.8555 129.839 23.2539C131.51 24.6445 133.71 25.3398 136.436 25.3398C139.046 25.3398 141.061 24.8047 142.483 23.7344C143.905 22.6562 144.678 21.1641 144.803 19.2578L144.815 18.9062H140.971L140.948 19.2461C140.854 20.2539 140.46 21.0547 139.764 21.6484C139.077 22.2344 137.948 22.5273 136.378 22.5273C134.831 22.5273 133.596 22.1055 132.675 21.2617C131.753 20.418 131.292 19.0312 131.292 17.1016V15.8359C131.292 13.9844 131.753 12.6211 132.675 11.7461C133.604 10.8711 134.839 10.4336 136.378 10.4336C137.776 10.4336 138.862 10.6953 139.635 11.2188C140.409 11.7344 140.846 12.5625 140.948 13.7031L140.96 14.043H144.815L144.792 13.7148C144.651 11.6758 143.846 10.1484 142.378 9.13281C140.909 8.10938 138.925 7.59766 136.425 7.59766C133.729 7.59766 131.542 8.30078 129.862 9.70703C128.182 11.1133 127.342 13.2617 127.342 16.1523V16.7852ZM163.483 25V7.9375H159.417L151.753 18.7773C151.573 19.0273 151.421 19.2734 151.296 19.5156C151.178 19.7578 151.077 19.9805 150.991 20.1836H150.815C150.823 19.9414 150.831 19.6758 150.839 19.3867C150.846 19.0898 150.85 18.8164 150.85 18.5664V7.9375H147.124V25H151.19L158.854 14.1367C159.05 13.8633 159.202 13.6172 159.311 13.3984C159.421 13.1797 159.53 12.9492 159.639 12.707H159.803C159.788 12.9492 159.776 13.2148 159.768 13.5039C159.76 13.793 159.757 14.0703 159.757 14.3359V25H163.483Z" fill="#00C293"/>
<rect width="36" height="28" rx="8" transform="matrix(0.994522 -0.104528 0 1 0 3.76294)" fill="#00C293"/>
<path d="M19.7312 6.89219V8.98985L20.6169 8.89675C23.5616 8.58725 25.7449 8.9359 27.1668 9.94271C28.5886 10.9495 29.2995 12.4725 29.2995 14.5115C29.2995 16.5584 28.5886 18.2347 27.1668 19.5404C25.7527 20.8374 23.5655 21.6415 20.6053 21.9527L19.7312 22.0445V24.4234L16.06 24.8093V22.4304L15.1859 22.5223C12.2179 22.8342 10.0268 22.4864 8.61272 21.4788C7.19863 20.4711 6.49159 18.9478 6.49159 16.9087C6.49159 14.8619 7.20252 13.1895 8.62437 11.8916C10.0462 10.5859 12.2295 9.7783 15.1742 9.4688L16.06 9.3757V7.27805L19.7312 6.89219ZM20.6635 11.6692L19.7312 11.7672V19.3141L20.6635 19.2161C22.5049 19.0225 23.7792 18.5683 24.4862 17.8534C25.201 17.1376 25.5584 16.1664 25.5584 14.9399C25.5584 13.7289 25.201 12.8329 24.4862 12.2518C23.7792 11.6699 22.5049 11.4757 20.6635 11.6692ZM15.1276 12.251C13.294 12.4438 12.0197 12.9019 11.3049 13.6255C10.5901 14.3412 10.2327 15.3085 10.2327 16.5272C10.2327 17.746 10.5901 18.6459 11.3049 19.227C12.0197 19.8004 13.294 19.9906 15.1276 19.7979L16.06 19.6999V12.153L15.1276 12.251Z" fill="white"/>
</svg>
